<svg version="1.1" id="Layer_1" xmlns="http://www.w3.org/2000/svg" xmlns:xlink="http://www.w3.org/1999/xlink" x="0px"
	y="0px" width="100%" viewBox="0 0 1024 1024" enable-background="new 0 0 1024 1024" xml:space="preserve">
	<path fill="#ffffff" opacity="1.000000" stroke="none" d="
M308.999939,457.267395 
	C290.503021,457.258667 272.505005,457.140015 254.509903,457.317413 
	C250.004272,457.361847 248.633881,456.239868 249.727402,451.573303 
	C254.118134,432.836212 253.189392,413.913696 251.095306,394.988037 
	C249.282318,378.602966 246.158081,362.447052 242.839798,346.312866 
	C241.868546,341.590454 239.867065,339.782166 234.839996,339.804291 
	C193.847824,339.984985 152.854324,339.936768 111.861610,339.821838 
	C107.649940,339.810028 105.619095,340.979797 104.894241,345.469482 
	C101.305389,367.698486 99.655853,389.831604 106.855011,411.695038 
	C112.274368,428.153290 122.550224,441.272064 135.448959,452.533478 
	C136.635773,453.569611 138.438477,454.156097 138.566513,456.714844 
	C100.255608,456.714844 62.012234,456.714844 23.875729,456.714844 
	C23.228895,454.818298 24.142988,453.761261 24.928244,452.714539 
	C45.765717,424.938782 61.236656,394.154480 75.217644,362.569794 
	C105.224220,294.781525 131.658127,225.521484 159.691422,156.920212 
	C166.180298,141.041077 172.638077,125.148148 178.934402,109.192207 
	C180.341415,105.626556 182.471176,104.069656 186.282440,103.682213 
	C205.984909,101.679321 225.681961,99.594818 245.339203,97.196915 
	C249.820374,96.650276 250.910339,97.918686 251.546295,102.210861 
	C254.110718,119.519096 259.286407,136.229019 264.130493,152.994614 
	C278.560547,202.937820 295.890350,251.886551 315.170074,300.143372 
	C335.332153,350.608826 357.655212,400.068207 384.917572,447.173370 
	C386.234772,449.449310 387.309448,451.926117 389.797546,453.896606 
	C391.317627,451.304047 391.441864,448.519196 391.990265,445.864990 
	C397.646576,418.490784 401.256653,390.848480 403.883850,363.015900 
	C407.790985,321.624329 407.823486,280.155914 406.428284,238.725327 
	C404.994232,196.140121 400.494202,153.787964 391.267639,112.066231 
	C389.629486,104.658470 389.728394,104.616737 397.361938,104.614464 
	C427.523468,104.605484 457.685028,104.602943 487.846558,104.614967 
	C494.750641,104.617714 494.788055,104.683487 493.342560,111.252434 
	C487.433594,138.104614 483.900391,165.297012 481.128479,192.634201 
	C477.003906,233.311356 476.356232,274.104767 477.552582,314.879639 
	C478.699188,353.959229 482.248810,392.903137 489.613037,431.394287 
	C490.862549,437.925293 492.074615,444.464539 493.429199,450.973938 
	C494.671661,456.944366 494.524841,457.253571 488.468750,457.255524 
	C450.975128,457.267548 413.481537,457.256989 375.987915,457.257233 
	C353.825256,457.257355 331.662628,457.263580 308.999939,457.267395 
M129.164322,265.563019 
	C121.700256,285.058319 114.607712,304.672607 109.214577,325.422485 
	C152.095490,325.422485 194.096161,325.422485 237.284546,325.422485 
	C220.793625,270.112793 201.307327,217.134995 167.836197,168.767914 
	C154.615570,201.815811 142.011017,233.323685 129.164322,265.563019 
z" />
	<path fill="#ffffff" opacity="1.000000" stroke="none" d="
M577.510559,481.321350 
	C603.770020,471.189484 628.541260,474.799103 652.305237,487.882996 
	C658.160706,491.106873 662.820312,496.015564 666.239136,501.937500 
	C667.907532,504.827332 667.707886,506.496704 664.210571,507.978394 
	C651.203613,513.489014 643.063965,526.332214 643.281616,540.331909 
	C643.426086,549.628052 648.506958,555.710083 657.593811,557.464417 
	C676.593811,561.132446 697.474060,549.081116 703.131775,530.636169 
	C707.632507,515.963379 703.819092,502.825165 693.357361,491.935974 
	C678.414429,476.382507 659.244568,468.499023 638.761902,463.385956 
	C619.600098,458.602600 600.457764,460.505310 581.314270,463.776276 
	C563.759460,466.775757 546.277588,467.902771 529.116150,461.341003 
	C499.228973,449.913422 492.057343,415.683655 514.964966,393.320068 
	C524.227539,384.277527 535.306946,378.389618 547.665588,374.756714 
	C550.471313,373.931915 553.211182,372.882812 556.054626,371.911987 
	C554.960083,368.868958 552.549316,368.178650 550.674805,366.930359 
	C524.625061,349.582977 511.067047,325.045685 512.039551,293.990814 
	C512.907776,266.265747 526.453491,244.215530 548.361816,227.386688 
	C566.955688,213.103836 588.322693,205.760941 611.337708,202.675018 
	C612.652588,202.498718 613.964111,202.262726 615.255737,201.962311 
	C615.861450,201.821411 616.416199,201.460846 617.425049,201.005157 
	C611.806763,190.922073 611.005920,180.617813 615.850159,170.245987 
	C623.522766,153.818436 635.069397,141.046997 651.971313,133.833588 
	C672.184326,125.207054 692.915955,123.651901 713.811279,131.071167 
	C737.658997,139.538742 741.719727,163.730042 722.259216,180.008987 
	C707.759033,192.138580 690.564941,197.286621 672.181763,199.268692 
	C668.220886,199.695770 663.678284,200.931015 660.353271,199.533920 
	C655.867737,197.649185 659.283691,192.470871 658.558655,188.786987 
	C656.141296,176.504623 647.660767,169.012054 636.643677,170.083145 
	C628.642029,170.861053 623.691895,178.131119 625.899231,185.863037 
	C628.849365,196.196884 635.911072,201.375473 646.584412,201.696640 
	C675.596680,202.569565 702.717896,209.494888 725.382507,228.639603 
	C760.813110,258.567780 764.213806,311.386841 733.596863,346.239746 
	C714.804138,367.632599 690.862671,379.118866 663.377563,384.205383 
	C639.553467,388.614410 615.905029,387.650177 591.939270,383.973511 
	C571.140686,380.782715 550.731506,384.266266 532.477661,395.920044 
	C530.267578,397.331024 528.315247,399.265747 526.561218,401.240051 
	C524.455872,403.609741 522.293823,406.328735 523.845825,409.750000 
	C525.246094,412.836823 528.391541,413.475677 531.444641,413.710541 
	C535.935181,414.055939 540.424927,414.052185 544.874512,413.106293 
	C562.123535,409.439575 579.225525,405.052765 596.641479,402.205353 
	C635.856995,395.793945 674.679749,395.990143 711.914551,411.803345 
	C734.625610,421.448456 751.146790,437.433533 756.736572,462.529572 
	C761.716492,484.887421 755.213440,504.949219 742.556458,522.943481 
	C722.606750,551.305420 694.381958,566.177368 660.282043,570.323669 
	C636.599731,573.203247 613.460205,571.087646 591.114258,562.235168 
	C582.960938,559.005127 575.680969,554.468323 569.164673,548.601196 
	C546.383240,528.089172 550.171997,496.156311 577.510559,481.321350 
M640.187439,214.356369 
	C631.294617,216.531555 625.404846,222.763062 620.835938,229.977753 
	C600.845032,261.545197 593.956360,296.627045 594.559326,333.410278 
	C594.727295,343.657501 596.021545,354.010742 601.201355,363.335327 
	C605.811035,371.633514 612.617737,374.906555 621.676636,372.615479 
	C627.025269,371.262817 631.012207,367.618225 634.517700,363.512848 
	C640.078674,357.000305 644.333740,349.678070 647.640503,341.800110 
	C659.864380,312.678497 665.373596,282.355194 664.065918,250.775864 
	C663.712402,242.238785 662.764099,233.850739 659.547668,225.877075 
	C655.805664,216.600479 651.137573,213.731171 640.187439,214.356369 
z" />
	<path fill="#ffffff" opacity="1.000000" stroke="none" d="
M213.982178,793.129761 
	C217.941010,802.871948 221.748398,812.261902 225.747162,822.123840 
	C227.790710,820.310791 228.357635,818.206604 229.129700,816.308044 
	C245.817810,775.273621 263.483490,734.620728 278.099365,692.772339 
	C286.222687,669.513550 293.301117,645.912903 296.391479,621.373962 
	C299.868134,593.767700 296.664124,567.498718 279.186890,544.524231 
	C274.632843,538.537781 269.389618,533.186523 263.727081,528.230469 
	C262.429016,527.094299 260.526825,526.298828 260.467651,523.519409 
	C298.808228,523.519409 337.086212,523.519409 375.147064,523.519409 
	C376.001099,525.316528 375.195221,526.252258 374.514282,527.164612 
	C352.330231,556.888123 336.253052,589.966248 321.412720,623.729126 
	C285.815369,704.715759 254.695938,787.528503 221.344894,869.430908 
	C219.286392,874.486145 216.580185,876.590027 211.351212,877.128174 
	C191.504303,879.170532 171.688751,881.520325 151.868912,883.819275 
	C149.494934,884.094604 148.156891,883.644409 147.671616,880.983215 
	C141.716110,848.323669 131.889099,816.708862 121.642654,785.213440 
	C98.890297,715.277710 72.222198,646.901917 39.613663,580.933777 
	C31.275179,564.064758 22.543188,547.372620 12.727905,531.281921 
	C11.381684,529.074951 9.463172,527.049194 9.424764,524.200684 
	C11.101892,522.410034 13.224062,522.993774 15.132811,522.992126 
	C57.965679,522.954834 100.798584,522.956238 143.631485,522.966553 
	C150.412460,522.968201 150.399597,523.023560 148.780869,529.768555 
	C144.447906,547.823730 144.518005,566.079712 146.819977,584.341003 
	C154.990707,649.158264 179.096954,709.093933 203.666107,768.872375 
	C206.957489,776.880493 210.437881,784.811035 213.982178,793.129761 
z" />
	<path fill="#ffffff" opacity="1.000000" stroke="none" d="
M531.209595,719.635376 
	C518.595215,690.094604 528.453064,660.443176 555.769531,643.014343 
	C574.061829,631.343323 594.310364,625.948853 615.355713,622.866333 
	C639.500549,619.329773 663.458862,620.626221 687.086304,626.902405 
	C695.844604,629.228882 704.103210,632.660339 711.432678,638.140442 
	C731.963013,653.490784 733.387085,677.352905 713.739563,693.765442 
	C697.114807,707.652832 677.603882,712.015930 656.586914,705.495850 
	C637.833740,699.678040 632.765320,680.746399 645.548096,665.870850 
	C647.278442,663.857239 649.339905,662.130554 651.216248,660.239563 
	C658.107666,653.294189 657.308105,643.847351 648.720154,639.294678 
	C638.178345,633.706177 627.227661,632.269409 616.618896,639.678894 
	C606.657654,646.636169 598.981140,655.450073 595.136475,667.123169 
	C590.917908,679.931824 595.511108,692.040710 607.182556,698.807617 
	C618.632690,705.446167 631.316895,709.213257 643.664978,713.692871 
	C662.937134,720.684326 682.230591,727.587708 699.873535,738.263123 
	C718.885376,749.766907 732.850159,765.221680 737.261047,787.702637 
	C743.248718,818.219360 732.011963,842.043701 708.304138,860.899841 
	C692.820618,873.214783 674.592834,878.894409 655.548584,881.979980 
	C622.389893,887.352417 590.067566,883.635986 559.354980,869.924194 
	C541.350464,861.886047 526.408203,849.779297 517.512268,831.486877 
	C513.660156,823.565857 511.755371,815.284363 512.596008,806.375549 
	C514.056396,790.899963 526.104309,779.629211 541.747192,778.651062 
	C555.456604,777.793823 567.709229,782.070984 579.444275,788.312134 
	C586.454590,792.040466 593.355774,796.078491 598.929932,801.330994 
	C599.149719,803.285339 598.091248,803.935913 597.210938,804.666077 
	C578.448364,820.229553 580.354675,844.425903 598.816650,859.839478 
	C620.358398,877.824402 650.670715,870.763916 660.759827,845.148926 
	C664.941589,834.532104 663.504395,824.287903 657.574280,814.559631 
	C649.637085,801.538696 636.843445,794.515869 624.028748,787.766052 
	C608.857239,779.774719 593.248474,772.618408 577.952087,764.858032 
	C557.877258,754.673340 541.097229,740.961426 531.209595,719.635376 
z" />
	<path fill="#ffffff" opacity="1.000000" stroke="none" d="
M968.945740,411.052307 
	C986.459839,428.616547 996.517761,449.768219 1001.388306,473.407776 
	C1007.863342,504.834869 1007.146912,536.105957 996.094788,566.473022 
	C983.794922,600.268311 961.790710,625.419189 926.462158,635.553772 
	C886.529297,647.009277 848.077576,643.949951 814.497803,616.668396 
	C795.524841,601.253906 784.048584,580.521240 777.846802,557.166626 
	C768.974854,523.756836 769.157288,490.128479 779.841736,457.181458 
	C789.837646,426.357788 808.456543,401.798981 839.299500,389.617767 
	C882.177551,372.683350 923.398376,376.126587 961.301758,404.085449 
	C963.967346,406.051727 966.239075,408.552002 968.945740,411.052307 
M924.564148,533.125122 
	C924.669861,532.299255 924.712402,531.459595 924.890320,530.649536 
	C932.134583,497.668030 936.004822,464.445740 931.592773,430.701447 
	C930.337341,421.099976 928.170532,411.665680 922.630249,403.445618 
	C918.710876,397.630615 913.445557,395.247742 906.277283,396.830170 
	C899.674500,398.287750 894.276489,401.535553 889.445068,406.059387 
	C879.522156,415.350433 872.723206,426.781036 867.392212,439.068024 
	C847.034607,485.988770 838.120422,534.930176 842.419861,586.029724 
	C843.302246,596.516663 846.102417,606.669006 851.708862,615.772400 
	C857.586731,625.316345 866.853821,628.193054 877.138245,623.777039 
	C887.663452,619.257629 894.124207,610.452576 899.650879,601.121399 
	C911.990906,580.286621 919.228149,557.475098 924.564148,533.125122 
z" />
	<path fill="#ffffff" opacity="1.000000" stroke="none" d="
M454.999939,876.287720 
	C433.504669,876.281067 412.509369,876.286377 391.514130,876.258484 
	C385.610229,876.250671 385.358978,876.009094 386.652893,870.386353 
	C391.763824,848.176636 396.226379,825.838501 399.302734,803.256287 
	C402.565796,779.303833 403.602448,755.274597 402.038910,731.080994 
	C399.927856,698.415283 393.632477,666.476440 386.432068,634.671265 
	C385.497070,630.541199 386.778381,629.730896 390.465485,629.736267 
	C422.124908,629.782166 453.784576,629.763000 485.443878,629.666931 
	C489.266357,629.655334 490.438904,630.824158 489.503998,634.730347 
	C485.015137,653.486023 480.786285,672.309143 477.837311,691.377014 
	C473.967712,716.397644 471.824799,741.482117 472.886200,766.910217 
	C474.337585,801.681030 481.187805,835.486572 488.962646,869.201782 
	C490.574310,876.190735 490.534271,876.257324 483.493500,876.269653 
	C474.162323,876.285889 464.831146,876.282166 454.999939,876.287720 
z" />
	<path fill="#ffffff" opacity="1.000000" stroke="none" d="
M396.243530,527.235474 
	C409.249817,515.430115 424.630920,510.468903 441.412720,508.578278 
	C451.375916,507.455841 461.007751,508.254150 470.409821,511.552124 
	C493.428833,519.626587 502.083984,543.042542 489.895264,564.199219 
	C481.618103,578.566284 468.311890,586.129028 452.961517,590.306519 
	C438.315552,594.292236 423.453339,595.318237 408.709747,590.306091 
	C383.412689,581.706177 375.069916,555.883606 390.552673,533.993286 
	C392.180023,531.692444 394.167847,529.646545 396.243530,527.235474 
z" />
</svg>